# xmcd
#
# Track frame offsets: 
#        150
#        18167
#        35062
#        52765
#        69304
#        87361
#        104402
#        122763
#        140239
#        157695
#        176204
#        193800
#        213382
#        233213
#        247289
#        270446
#        285869
#        299600
#        317715
#        331443
#        345189
#
# Disc length: 4778 seconds
#
# Revision: 0
# Processed by: cddbd v1.5.2PL0 Copyright (c) Steve Scherf et al.
# Submitted via: ExactAudioCopy v0.99pb4
#
DISCID=3812a815
DTITLE=Various Artist - prevue promo 1094A-2
DYEAR=2002
DGENRE=pop
TTITLE0=Tracy Lyons - Love Hurts
TTITLE1=2 (Two) - Angel
TTITLE2=Jarvis Church - Shake It Off
TTITLE3=Amy Studt - Just A Little Gir(lLyric!!)
TTITLE4=Jimmy Buffett - Far Side Of The World
TTITLE5=Ball In The House - Something I Don't Know
TTITLE6=Bertie Higgins - Just Another Day In Paradise
TTITLE7=Master P feat. Weebie and Krazy - Rock It(Clean Mix)
TTITLE8=Dirty - My Cadillac
TTITLE9=Natalie Grant - What Other Man(Eric Foster White Remix)
TTITLE10=Joe Satriani - Starry Night(Instrumental)
TTITLE11=Groove Dogs - Blues Is My Business (And Business Is Good)
TTITLE12=Tragically Hip - It's A Good Life If You Don't Weaken
TTITLE13=Cake - Shadow Stabbing
TTITLE14=Chuck Prophet - Summertime Thing
TTITLE15=Furthermore - Letter To Myself
TTITLE16=White Stripes, The - Dead Leaves And The Dirty Ground
TTITLE17=Lostprophets - Fake Sound Of Progress, The(Machine Remix-Radi
TTITLE17=o Edit 2)
TTITLE18=Dis-Misile - When Doves Cry
TTITLE19=Unwritten Law - Up All Night
TTITLE20=Breaking Benjamin - Polyamorous
EXTD=
EXTT0=
EXTT1=
EXTT2=
EXTT3=
EXTT4=
EXTT5=
EXTT6=
EXTT7=
EXTT8=
EXTT9=
EXTT10=
EXTT11=
EXTT12=
EXTT13=
EXTT14=
EXTT15=
EXTT16=
EXTT17=
EXTT18=
EXTT19=
EXTT20=
PLAYORDER=
